<mxfile host="www.draw.io" modified="2019-10-17T08:30:33.442Z" agent="Mozilla/5.0 (Windows NT 10.0; Win64; x64) AppleWebKit/537.36 (KHTML, like Gecko) Chrome/77.0.3865.120 Safari/537.36" etag="flWxM17vqxB0d31eIET6" version="12.1.2" type="github" pages="1">
  <diagram id="QEVr7wvfZW63wJ_uZL5w" name="Page-1">
    <mxGraphModel dx="2031" dy="1089" grid="1" gridSize="10" guides="1" tooltips="1" connect="1" arrows="1" fold="1" page="1" pageScale="1" pageWidth="827" pageHeight="1169" math="0" shadow="0">
      <root>
        <mxCell id="0"/>
        <mxCell id="1" parent="0"/>
        <mxCell id="JqxxNo1I9hSQXzHo5P-l-2" value="" style="endArrow=none;html=1;exitX=0;exitY=0.5;exitDx=0;exitDy=0;entryX=1;entryY=0.5;entryDx=0;entryDy=0;" parent="1" edge="1">
          <mxGeometry width="50" height="50" relative="1" as="geometry">
            <mxPoint x="150" y="335" as="sourcePoint"/>
            <mxPoint x="380" y="335" as="targetPoint"/>
          </mxGeometry>
        </mxCell>
        <mxCell id="JqxxNo1I9hSQXzHo5P-l-3" value="" style="endArrow=none;html=1;exitX=0.5;exitY=0;exitDx=0;exitDy=0;entryX=0.5;entryY=1;entryDx=0;entryDy=0;" parent="1" edge="1">
          <mxGeometry width="50" height="50" relative="1" as="geometry">
            <mxPoint x="265" y="220" as="sourcePoint"/>
            <mxPoint x="265" y="450" as="targetPoint"/>
          </mxGeometry>
        </mxCell>
        <mxCell id="JqxxNo1I9hSQXzHo5P-l-4" value="" style="endArrow=none;html=1;entryX=0.25;entryY=1;entryDx=0;entryDy=0;exitX=0.25;exitY=0;exitDx=0;exitDy=0;" parent="1" edge="1">
          <mxGeometry width="50" height="50" relative="1" as="geometry">
            <mxPoint x="207.5" y="220" as="sourcePoint"/>
            <mxPoint x="207.5" y="450" as="targetPoint"/>
          </mxGeometry>
        </mxCell>
        <mxCell id="JqxxNo1I9hSQXzHo5P-l-5" value="" style="whiteSpace=wrap;html=1;aspect=fixed;fillColor=#ffcccc;strokeColor=#36393d;" parent="1" vertex="1">
          <mxGeometry x="280" y="504" width="116" height="116" as="geometry"/>
        </mxCell>
        <mxCell id="JqxxNo1I9hSQXzHo5P-l-6" value="" style="whiteSpace=wrap;html=1;aspect=fixed;fillColor=#cce5ff;strokeColor=#36393d;" parent="1" vertex="1">
          <mxGeometry x="396" y="504" width="116" height="116" as="geometry"/>
        </mxCell>
        <mxCell id="JqxxNo1I9hSQXzHo5P-l-7" value="" style="whiteSpace=wrap;html=1;aspect=fixed;fillColor=#ffe6cc;strokeColor=#d79b00;" parent="1" vertex="1">
          <mxGeometry x="280" y="620" width="116" height="116" as="geometry"/>
        </mxCell>
        <mxCell id="JqxxNo1I9hSQXzHo5P-l-8" value="" style="whiteSpace=wrap;html=1;aspect=fixed;fillColor=#d5e8d4;strokeColor=#82b366;" parent="1" vertex="1">
          <mxGeometry x="396" y="620" width="116" height="116" as="geometry"/>
        </mxCell>
        <mxCell id="JqxxNo1I9hSQXzHo5P-l-10" value="" style="endArrow=none;html=1;entryX=0;entryY=0.5;entryDx=0;entryDy=0;exitX=1;exitY=0.5;exitDx=0;exitDy=0;" parent="1" source="JqxxNo1I9hSQXzHo5P-l-6" target="JqxxNo1I9hSQXzHo5P-l-5" edge="1">
          <mxGeometry width="50" height="50" relative="1" as="geometry">
            <mxPoint x="110" y="691" as="sourcePoint"/>
            <mxPoint x="218" y="640" as="targetPoint"/>
          </mxGeometry>
        </mxCell>
        <mxCell id="JqxxNo1I9hSQXzHo5P-l-11" value="" style="endArrow=none;html=1;entryX=0;entryY=0.5;entryDx=0;entryDy=0;exitX=1;exitY=0.5;exitDx=0;exitDy=0;" parent="1" source="JqxxNo1I9hSQXzHo5P-l-8" target="JqxxNo1I9hSQXzHo5P-l-7" edge="1">
          <mxGeometry width="50" height="50" relative="1" as="geometry">
            <mxPoint x="140" y="780" as="sourcePoint"/>
            <mxPoint x="220" y="700" as="targetPoint"/>
          </mxGeometry>
        </mxCell>
        <mxCell id="JqxxNo1I9hSQXzHo5P-l-12" value="" style="endArrow=none;html=1;entryX=0.5;entryY=0;entryDx=0;entryDy=0;exitX=0.5;exitY=1;exitDx=0;exitDy=0;" parent="1" source="JqxxNo1I9hSQXzHo5P-l-7" target="JqxxNo1I9hSQXzHo5P-l-5" edge="1">
          <mxGeometry width="50" height="50" relative="1" as="geometry">
            <mxPoint x="70" y="780" as="sourcePoint"/>
            <mxPoint x="120" y="730" as="targetPoint"/>
          </mxGeometry>
        </mxCell>
        <mxCell id="JqxxNo1I9hSQXzHo5P-l-13" value="" style="endArrow=none;html=1;entryX=0.5;entryY=0;entryDx=0;entryDy=0;exitX=0.5;exitY=1;exitDx=0;exitDy=0;" parent="1" source="JqxxNo1I9hSQXzHo5P-l-8" target="JqxxNo1I9hSQXzHo5P-l-6" edge="1">
          <mxGeometry width="50" height="50" relative="1" as="geometry">
            <mxPoint x="160" y="880" as="sourcePoint"/>
            <mxPoint x="210" y="830" as="targetPoint"/>
          </mxGeometry>
        </mxCell>
        <mxCell id="JqxxNo1I9hSQXzHo5P-l-16" value="8" style="whiteSpace=wrap;html=1;aspect=fixed;fillColor=#f8cecc;strokeColor=#b85450;fontSize=25;" parent="1" vertex="1">
          <mxGeometry x="680" y="446" width="58" height="58" as="geometry"/>
        </mxCell>
        <mxCell id="JqxxNo1I9hSQXzHo5P-l-17" value="7" style="whiteSpace=wrap;html=1;aspect=fixed;fillColor=#d5e8d4;strokeColor=#82b366;fontSize=25;" parent="1" vertex="1">
          <mxGeometry x="738" y="504" width="58" height="58" as="geometry"/>
        </mxCell>
        <mxCell id="JqxxNo1I9hSQXzHo5P-l-18" value="9" style="whiteSpace=wrap;html=1;aspect=fixed;fillColor=#ffe6cc;strokeColor=#d79b00;fontSize=25;" parent="1" vertex="1">
          <mxGeometry x="680" y="504" width="58" height="58" as="geometry"/>
        </mxCell>
        <mxCell id="JqxxNo1I9hSQXzHo5P-l-19" value="3" style="whiteSpace=wrap;html=1;aspect=fixed;fillColor=#dae8fc;strokeColor=#6c8ebf;fontSize=25;" parent="1" vertex="1">
          <mxGeometry x="738" y="446" width="58" height="58" as="geometry"/>
        </mxCell>
        <mxCell id="JqxxNo1I9hSQXzHo5P-l-20" value="&lt;font style=&quot;font-size: 30px&quot;&gt;2&lt;/font&gt;" style="text;html=1;strokeColor=none;fillColor=none;align=center;verticalAlign=middle;whiteSpace=wrap;rounded=0;" parent="1" vertex="1">
          <mxGeometry x="290" y="520" width="40" height="34" as="geometry"/>
        </mxCell>
        <mxCell id="JqxxNo1I9hSQXzHo5P-l-23" value="&lt;font style=&quot;font-size: 30px&quot;&gt;5&lt;/font&gt;" style="text;html=1;strokeColor=none;fillColor=none;align=center;verticalAlign=middle;whiteSpace=wrap;rounded=0;" parent="1" vertex="1">
          <mxGeometry x="347" y="520" width="40" height="34" as="geometry"/>
        </mxCell>
        <mxCell id="JqxxNo1I9hSQXzHo5P-l-24" value="&lt;font style=&quot;font-size: 30px&quot;&gt;2&lt;/font&gt;" style="text;html=1;strokeColor=none;fillColor=none;align=center;verticalAlign=middle;whiteSpace=wrap;rounded=0;" parent="1" vertex="1">
          <mxGeometry x="404" y="520" width="40" height="34" as="geometry"/>
        </mxCell>
        <mxCell id="JqxxNo1I9hSQXzHo5P-l-25" value="&lt;font style=&quot;font-size: 30px&quot;&gt;3&lt;/font&gt;" style="text;html=1;strokeColor=none;fillColor=none;align=center;verticalAlign=middle;whiteSpace=wrap;rounded=0;" parent="1" vertex="1">
          <mxGeometry x="463" y="520" width="40" height="34" as="geometry"/>
        </mxCell>
        <mxCell id="JqxxNo1I9hSQXzHo5P-l-26" value="&lt;font style=&quot;font-size: 30px&quot;&gt;5&lt;/font&gt;" style="text;html=1;strokeColor=none;fillColor=none;align=center;verticalAlign=middle;whiteSpace=wrap;rounded=0;" parent="1" vertex="1">
          <mxGeometry x="290" y="577" width="40" height="34" as="geometry"/>
        </mxCell>
        <mxCell id="JqxxNo1I9hSQXzHo5P-l-27" value="&lt;font style=&quot;font-size: 30px&quot;&gt;8&lt;/font&gt;" style="text;html=1;strokeColor=none;fillColor=none;align=center;verticalAlign=middle;whiteSpace=wrap;rounded=0;" parent="1" vertex="1">
          <mxGeometry x="346" y="577" width="40" height="34" as="geometry"/>
        </mxCell>
        <mxCell id="JqxxNo1I9hSQXzHo5P-l-28" value="&lt;font style=&quot;font-size: 30px&quot;&gt;2&lt;/font&gt;" style="text;html=1;strokeColor=none;fillColor=none;align=center;verticalAlign=middle;whiteSpace=wrap;rounded=0;" parent="1" vertex="1">
          <mxGeometry x="404" y="577" width="40" height="34" as="geometry"/>
        </mxCell>
        <mxCell id="JqxxNo1I9hSQXzHo5P-l-30" value="&lt;font style=&quot;font-size: 30px&quot;&gt;2&lt;/font&gt;" style="text;html=1;strokeColor=none;fillColor=none;align=center;verticalAlign=middle;whiteSpace=wrap;rounded=0;" parent="1" vertex="1">
          <mxGeometry x="290" y="632" width="40" height="34" as="geometry"/>
        </mxCell>
        <mxCell id="JqxxNo1I9hSQXzHo5P-l-31" value="&lt;font style=&quot;font-size: 30px&quot;&gt;9&lt;/font&gt;" style="text;html=1;strokeColor=none;fillColor=none;align=center;verticalAlign=middle;whiteSpace=wrap;rounded=0;" parent="1" vertex="1">
          <mxGeometry x="346" y="633" width="40" height="34" as="geometry"/>
        </mxCell>
        <mxCell id="JqxxNo1I9hSQXzHo5P-l-32" value="&lt;font style=&quot;font-size: 30px&quot;&gt;3&lt;/font&gt;" style="text;html=1;strokeColor=none;fillColor=none;align=center;verticalAlign=middle;whiteSpace=wrap;rounded=0;" parent="1" vertex="1">
          <mxGeometry x="404" y="632" width="40" height="34" as="geometry"/>
        </mxCell>
        <mxCell id="JqxxNo1I9hSQXzHo5P-l-33" value="&lt;font style=&quot;font-size: 30px&quot;&gt;1&lt;/font&gt;" style="text;html=1;strokeColor=none;fillColor=none;align=center;verticalAlign=middle;whiteSpace=wrap;rounded=0;" parent="1" vertex="1">
          <mxGeometry x="463" y="632" width="40" height="34" as="geometry"/>
        </mxCell>
        <mxCell id="JqxxNo1I9hSQXzHo5P-l-34" value="&lt;font style=&quot;font-size: 30px&quot;&gt;6&lt;/font&gt;" style="text;html=1;strokeColor=none;fillColor=none;align=center;verticalAlign=middle;whiteSpace=wrap;rounded=0;" parent="1" vertex="1">
          <mxGeometry x="290" y="690" width="40" height="34" as="geometry"/>
        </mxCell>
        <mxCell id="JqxxNo1I9hSQXzHo5P-l-35" value="&lt;font style=&quot;font-size: 30px&quot;&gt;3&lt;/font&gt;" style="text;html=1;strokeColor=none;fillColor=none;align=center;verticalAlign=middle;whiteSpace=wrap;rounded=0;" parent="1" vertex="1">
          <mxGeometry x="346" y="690" width="40" height="34" as="geometry"/>
        </mxCell>
        <mxCell id="JqxxNo1I9hSQXzHo5P-l-36" value="&lt;font style=&quot;font-size: 30px&quot;&gt;5&lt;/font&gt;" style="text;html=1;strokeColor=none;fillColor=none;align=center;verticalAlign=middle;whiteSpace=wrap;rounded=0;" parent="1" vertex="1">
          <mxGeometry x="404" y="690" width="40" height="34" as="geometry"/>
        </mxCell>
        <mxCell id="JqxxNo1I9hSQXzHo5P-l-37" value="&lt;font style=&quot;font-size: 30px&quot;&gt;7&lt;/font&gt;" style="text;html=1;strokeColor=none;fillColor=none;align=center;verticalAlign=middle;whiteSpace=wrap;rounded=0;" parent="1" vertex="1">
          <mxGeometry x="463" y="691" width="40" height="34" as="geometry"/>
        </mxCell>
        <mxCell id="JqxxNo1I9hSQXzHo5P-l-38" value="&lt;font style=&quot;font-size: 30px&quot;&gt;1&lt;/font&gt;" style="text;html=1;strokeColor=none;fillColor=none;align=center;verticalAlign=middle;whiteSpace=wrap;rounded=0;" parent="1" vertex="1">
          <mxGeometry x="463" y="577" width="40" height="34" as="geometry"/>
        </mxCell>
        <mxCell id="JqxxNo1I9hSQXzHo5P-l-41" style="edgeStyle=orthogonalEdgeStyle;rounded=0;orthogonalLoop=1;jettySize=auto;html=1;exitX=0.5;exitY=1;exitDx=0;exitDy=0;fontSize=25;" parent="1" edge="1">
          <mxGeometry relative="1" as="geometry">
            <mxPoint x="655" y="599" as="sourcePoint"/>
            <mxPoint x="655" y="599" as="targetPoint"/>
          </mxGeometry>
        </mxCell>
        <mxCell id="h011N8lEmb2DcFqL1Mn1-1" value="5" style="whiteSpace=wrap;html=1;aspect=fixed;fillColor=#f8cecc;strokeColor=#b85450;fontSize=25;" vertex="1" parent="1">
          <mxGeometry x="680" y="678" width="58" height="58" as="geometry"/>
        </mxCell>
        <mxCell id="h011N8lEmb2DcFqL1Mn1-2" value="4" style="whiteSpace=wrap;html=1;aspect=fixed;fillColor=#d5e8d4;strokeColor=#82b366;fontSize=25;" vertex="1" parent="1">
          <mxGeometry x="738" y="736" width="58" height="58" as="geometry"/>
        </mxCell>
        <mxCell id="h011N8lEmb2DcFqL1Mn1-3" value="5" style="whiteSpace=wrap;html=1;aspect=fixed;fillColor=#ffe6cc;strokeColor=#d79b00;fontSize=25;" vertex="1" parent="1">
          <mxGeometry x="680" y="736" width="58" height="58" as="geometry"/>
        </mxCell>
        <mxCell id="h011N8lEmb2DcFqL1Mn1-4" value="2" style="whiteSpace=wrap;html=1;aspect=fixed;fillColor=#dae8fc;strokeColor=#6c8ebf;fontSize=25;" vertex="1" parent="1">
          <mxGeometry x="738" y="678" width="58" height="58" as="geometry"/>
        </mxCell>
        <mxCell id="h011N8lEmb2DcFqL1Mn1-11" value="" style="shape=flexArrow;endArrow=classic;html=1;" edge="1" parent="1">
          <mxGeometry width="50" height="50" relative="1" as="geometry">
            <mxPoint x="150" y="890" as="sourcePoint"/>
            <mxPoint x="200" y="840" as="targetPoint"/>
          </mxGeometry>
        </mxCell>
        <mxCell id="h011N8lEmb2DcFqL1Mn1-12" value="" style="shape=flexArrow;endArrow=classic;html=1;width=13;endSize=12.9;" edge="1" parent="1">
          <mxGeometry width="50" height="50" relative="1" as="geometry">
            <mxPoint x="550" y="570" as="sourcePoint"/>
            <mxPoint x="640" y="530" as="targetPoint"/>
          </mxGeometry>
        </mxCell>
        <mxCell id="h011N8lEmb2DcFqL1Mn1-13" value="" style="shape=flexArrow;endArrow=classic;html=1;width=13;endSize=12.9;" edge="1" parent="1">
          <mxGeometry width="50" height="50" relative="1" as="geometry">
            <mxPoint x="560" y="704" as="sourcePoint"/>
            <mxPoint x="650" y="736" as="targetPoint"/>
          </mxGeometry>
        </mxCell>
        <mxCell id="h011N8lEmb2DcFqL1Mn1-14" value="MAX" style="text;html=1;strokeColor=none;fillColor=none;align=center;verticalAlign=middle;whiteSpace=wrap;rounded=0;fontSize=23;" vertex="1" parent="1">
          <mxGeometry x="570" y="574" width="40" height="20" as="geometry"/>
        </mxCell>
        <mxCell id="h011N8lEmb2DcFqL1Mn1-16" value="AVG" style="text;html=1;strokeColor=none;fillColor=none;align=center;verticalAlign=middle;whiteSpace=wrap;rounded=0;fontSize=23;" vertex="1" parent="1">
          <mxGeometry x="570" y="681" width="40" height="20" as="geometry"/>
        </mxCell>
      </root>
    </mxGraphModel>
  </diagram>
</mxfile>
